<svg xmlns="http://www.w3.org/2000/svg" xmlns:xlink="http://www.w3.org/1999/xlink" width="139" zoomAndPan="magnify" viewBox="0 0 104.25 32.249999" height="43" preserveAspectRatio="xMidYMid meet" version="1.0"><defs><g/><clipPath id="7872f83d10"><path d="M 0.816406 8 L 18 8 L 18 26 L 0.816406 26 Z M 0.816406 8 " clip-rule="nonzero"/></clipPath></defs><path fill="#1e28ff" d="M 31.183594 8.0625 L 43.328125 8.0625 L 32.839844 25.730469 L 20.695312 25.730469 Z M 31.183594 8.0625 " fill-opacity="1" fill-rule="nonzero"/><path fill="#5b62f6" d="M 20.140625 8.0625 L 28.976562 8.0625 L 18.484375 25.730469 L 9.652344 25.730469 Z M 20.140625 8.0625 " fill-opacity="1" fill-rule="nonzero"/><g clip-path="url(#7872f83d10)"><path fill="#8e93ff" d="M 11.308594 8.0625 L 17.933594 8.0625 L 7.441406 25.730469 L 0.816406 25.730469 Z M 11.308594 8.0625 " fill-opacity="1" fill-rule="nonzero"/></g><g fill="#000000" fill-opacity="1"><g transform="translate(43.102194, 24.700633)"><g><path d="M 3.96875 0.125 C 3.351562 0.125 2.800781 0.0195312 2.3125 -0.1875 C 1.820312 -0.394531 1.4375 -0.6875 1.15625 -1.0625 C 0.875 -1.4375 0.71875 -1.867188 0.6875 -2.359375 L 2.0625 -2.359375 C 2.101562 -1.960938 2.289062 -1.632812 2.625 -1.375 C 2.96875 -1.125 3.410156 -1 3.953125 -1 C 4.460938 -1 4.863281 -1.109375 5.15625 -1.328125 C 5.445312 -1.554688 5.59375 -1.84375 5.59375 -2.1875 C 5.59375 -2.539062 5.4375 -2.800781 5.125 -2.96875 C 4.8125 -3.132812 4.328125 -3.300781 3.671875 -3.46875 C 3.078125 -3.625 2.59375 -3.78125 2.21875 -3.9375 C 1.84375 -4.101562 1.519531 -4.34375 1.25 -4.65625 C 0.976562 -4.976562 0.84375 -5.398438 0.84375 -5.921875 C 0.84375 -6.328125 0.960938 -6.703125 1.203125 -7.046875 C 1.453125 -7.390625 1.800781 -7.660156 2.25 -7.859375 C 2.707031 -8.054688 3.222656 -8.15625 3.796875 -8.15625 C 4.679688 -8.15625 5.394531 -7.929688 5.9375 -7.484375 C 6.488281 -7.035156 6.785156 -6.421875 6.828125 -5.640625 L 5.5 -5.640625 C 5.46875 -6.054688 5.296875 -6.390625 4.984375 -6.640625 C 4.679688 -6.898438 4.269531 -7.03125 3.75 -7.03125 C 3.269531 -7.03125 2.890625 -6.925781 2.609375 -6.71875 C 2.328125 -6.519531 2.1875 -6.253906 2.1875 -5.921875 C 2.1875 -5.660156 2.269531 -5.441406 2.4375 -5.265625 C 2.613281 -5.097656 2.828125 -4.960938 3.078125 -4.859375 C 3.335938 -4.753906 3.695312 -4.640625 4.15625 -4.515625 C 4.738281 -4.359375 5.207031 -4.203125 5.5625 -4.046875 C 5.925781 -3.898438 6.238281 -3.675781 6.5 -3.375 C 6.757812 -3.070312 6.894531 -2.675781 6.90625 -2.1875 C 6.90625 -1.75 6.78125 -1.351562 6.53125 -1 C 6.289062 -0.644531 5.945312 -0.367188 5.5 -0.171875 C 5.0625 0.0234375 4.550781 0.125 3.96875 0.125 Z M 3.96875 0.125 "/></g></g></g><g fill="#000000" fill-opacity="1"><g transform="translate(50.754229, 24.700633)"><g><path d="M 5.109375 -8.171875 C 5.722656 -8.171875 6.269531 -8.039062 6.75 -7.78125 C 7.238281 -7.53125 7.625 -7.144531 7.90625 -6.625 C 8.1875 -6.101562 8.328125 -5.472656 8.328125 -4.734375 L 8.328125 0 L 7 0 L 7 -4.546875 C 7 -5.347656 6.796875 -5.957031 6.390625 -6.375 C 5.992188 -6.800781 5.453125 -7.015625 4.765625 -7.015625 C 4.054688 -7.015625 3.492188 -6.796875 3.078125 -6.359375 C 2.671875 -5.921875 2.46875 -5.28125 2.46875 -4.4375 L 2.46875 0 L 1.125 0 L 1.125 -10.84375 L 2.46875 -10.84375 L 2.46875 -6.890625 C 2.726562 -7.296875 3.085938 -7.609375 3.546875 -7.828125 C 4.015625 -8.054688 4.535156 -8.171875 5.109375 -8.171875 Z M 5.109375 -8.171875 "/></g></g></g><g fill="#000000" fill-opacity="1"><g transform="translate(60.136038, 24.700633)"><g><path d="M 0.625 -4.046875 C 0.625 -4.867188 0.789062 -5.585938 1.125 -6.203125 C 1.457031 -6.828125 1.914062 -7.304688 2.5 -7.640625 C 3.082031 -7.984375 3.726562 -8.15625 4.4375 -8.15625 C 5.144531 -8.15625 5.753906 -8.003906 6.265625 -7.703125 C 6.785156 -7.398438 7.175781 -7.019531 7.4375 -6.5625 L 7.4375 -8.03125 L 8.78125 -8.03125 L 8.78125 0 L 7.4375 0 L 7.4375 -1.5 C 7.164062 -1.03125 6.769531 -0.640625 6.25 -0.328125 C 5.726562 -0.0234375 5.117188 0.125 4.421875 0.125 C 3.710938 0.125 3.066406 -0.046875 2.484375 -0.390625 C 1.910156 -0.742188 1.457031 -1.238281 1.125 -1.875 C 0.789062 -2.507812 0.625 -3.234375 0.625 -4.046875 Z M 7.4375 -4.03125 C 7.4375 -4.632812 7.3125 -5.160156 7.0625 -5.609375 C 6.820312 -6.054688 6.492188 -6.398438 6.078125 -6.640625 C 5.660156 -6.878906 5.203125 -7 4.703125 -7 C 4.203125 -7 3.742188 -6.878906 3.328125 -6.640625 C 2.921875 -6.410156 2.597656 -6.070312 2.359375 -5.625 C 2.117188 -5.175781 2 -4.648438 2 -4.046875 C 2 -3.429688 2.117188 -2.894531 2.359375 -2.4375 C 2.597656 -1.988281 2.921875 -1.644531 3.328125 -1.40625 C 3.742188 -1.164062 4.203125 -1.046875 4.703125 -1.046875 C 5.203125 -1.046875 5.660156 -1.164062 6.078125 -1.40625 C 6.492188 -1.644531 6.820312 -1.988281 7.0625 -2.4375 C 7.3125 -2.894531 7.4375 -3.425781 7.4375 -4.03125 Z M 7.4375 -4.03125 "/></g></g></g><g fill="#000000" fill-opacity="1"><g transform="translate(70.045575, 24.700633)"><g><path d="M 8.25 -8.03125 L 8.25 0 L 6.921875 0 L 6.921875 -1.1875 C 6.660156 -0.78125 6.300781 -0.457031 5.84375 -0.21875 C 5.394531 0.0078125 4.898438 0.125 4.359375 0.125 C 3.734375 0.125 3.171875 -0.00390625 2.671875 -0.265625 C 2.171875 -0.523438 1.773438 -0.914062 1.484375 -1.4375 C 1.203125 -1.957031 1.0625 -2.585938 1.0625 -3.328125 L 1.0625 -8.03125 L 2.375 -8.03125 L 2.375 -3.5 C 2.375 -2.707031 2.570312 -2.097656 2.96875 -1.671875 C 3.375 -1.253906 3.921875 -1.046875 4.609375 -1.046875 C 5.328125 -1.046875 5.890625 -1.265625 6.296875 -1.703125 C 6.710938 -2.140625 6.921875 -2.78125 6.921875 -3.625 L 6.921875 -8.03125 Z M 8.25 -8.03125 "/></g></g></g><g fill="#000000" fill-opacity="1"><g transform="translate(79.427383, 24.700633)"><g><path d="M 2.46875 -6.734375 C 2.695312 -7.191406 3.03125 -7.546875 3.46875 -7.796875 C 3.90625 -8.046875 4.4375 -8.171875 5.0625 -8.171875 L 5.0625 -6.796875 L 4.703125 -6.796875 C 3.210938 -6.796875 2.46875 -5.988281 2.46875 -4.375 L 2.46875 0 L 1.125 0 L 1.125 -8.03125 L 2.46875 -8.03125 Z M 2.46875 -6.734375 "/></g></g></g><g fill="#000000" fill-opacity="1"><g transform="translate(84.895217, 24.700633)"><g><path d="M 8.046875 -8.03125 L 3.203125 3.78125 L 1.828125 3.78125 L 3.421875 -0.09375 L 0.171875 -8.03125 L 1.65625 -8.03125 L 4.171875 -1.53125 L 6.671875 -8.03125 Z M 8.046875 -8.03125 "/></g></g></g><g fill="#000000" fill-opacity="1"><g transform="translate(93.148281, 24.700633)"><g><path d="M 0.625 -4.046875 C 0.625 -4.867188 0.789062 -5.585938 1.125 -6.203125 C 1.457031 -6.828125 1.914062 -7.304688 2.5 -7.640625 C 3.082031 -7.984375 3.726562 -8.15625 4.4375 -8.15625 C 5.144531 -8.15625 5.753906 -8.003906 6.265625 -7.703125 C 6.785156 -7.398438 7.175781 -7.019531 7.4375 -6.5625 L 7.4375 -8.03125 L 8.78125 -8.03125 L 8.78125 0 L 7.4375 0 L 7.4375 -1.5 C 7.164062 -1.03125 6.769531 -0.640625 6.25 -0.328125 C 5.726562 -0.0234375 5.117188 0.125 4.421875 0.125 C 3.710938 0.125 3.066406 -0.046875 2.484375 -0.390625 C 1.910156 -0.742188 1.457031 -1.238281 1.125 -1.875 C 0.789062 -2.507812 0.625 -3.234375 0.625 -4.046875 Z M 7.4375 -4.03125 C 7.4375 -4.632812 7.3125 -5.160156 7.0625 -5.609375 C 6.820312 -6.054688 6.492188 -6.398438 6.078125 -6.640625 C 5.660156 -6.878906 5.203125 -7 4.703125 -7 C 4.203125 -7 3.742188 -6.878906 3.328125 -6.640625 C 2.921875 -6.410156 2.597656 -6.070312 2.359375 -5.625 C 2.117188 -5.175781 2 -4.648438 2 -4.046875 C 2 -3.429688 2.117188 -2.894531 2.359375 -2.4375 C 2.597656 -1.988281 2.921875 -1.644531 3.328125 -1.40625 C 3.742188 -1.164062 4.203125 -1.046875 4.703125 -1.046875 C 5.203125 -1.046875 5.660156 -1.164062 6.078125 -1.40625 C 6.492188 -1.644531 6.820312 -1.988281 7.0625 -2.4375 C 7.3125 -2.894531 7.4375 -3.425781 7.4375 -4.03125 Z M 7.4375 -4.03125 "/></g></g></g></svg>